<svg xmlns="http://www.w3.org/2000/svg" width="21.522" height="9.38" viewBox="7.675 15.726 21.522 9.38"><path d="M28.967 17.374a1.215 1.215 0 0 0-1.697-.275l-5.079 3.659a3.146 3.146 0 0 1-2.048.75H15.99a.867.867 0 1 1 0-1.736h4.443a1.15 1.15 0 0 0 1.149-1.197c-.026-.62-.555-1.102-1.177-1.102h-3.382a5.548 5.548 0 0 0-4.053-1.748c-2.199 0-4.387 1.386-5.294 3.236l3.548 6.145h6.656a7.47 7.47 0 0 0 3.727-.986c.392-.226.813-.497 1.268-.824 1.91-1.372 5.813-4.221 5.816-4.223.546-.392.67-1.153.277-1.699Z" fill="#4a4b4d" fill-rule="evenodd" data-name="Path 10148"/></svg>