<svg xmlns="http://www.w3.org/2000/svg" width="28.506" height="22.273" viewBox="72.747 147.109 28.506 22.273"><path d="M72.747 153.346v-.891c0-.738.598-1.336 1.336-1.336h20.044v-2.673c0-1.19 1.442-1.784 2.28-.945l4.455 4.454a1.336 1.336 0 0 1 0 1.89l-4.454 4.454c-.836.836-2.281.25-2.281-.945v-2.672H74.083a1.336 1.336 0 0 1-1.336-1.336Zm27.17 8.463H79.873v-2.673c0-1.187-1.44-1.786-2.28-.945l-4.455 4.454a1.336 1.336 0 0 0 0 1.89l4.454 4.454c.837.837 2.281.249 2.281-.945v-2.672h20.044c.738 0 1.336-.598 1.336-1.336v-.891c0-.738-.598-1.336-1.336-1.336Z" fill="#4a4b4d" fill-rule="evenodd" data-name="Icon awesome-exchange-alt"/></svg>