<svg xmlns="http://www.w3.org/2000/svg" width="25.54" height="22.561" viewBox="29.23 30.72 25.54 22.561"><path d="M47.52 30.72a7.2 7.2 0 0 1 5.126 2.124 7.2 7.2 0 0 1 2.124 5.126 7.2 7.2 0 0 1-2.124 5.127l-9.858 9.857a1.115 1.115 0 0 1-1.577 0l-9.858-9.858a7.202 7.202 0 0 1-2.123-5.126c0-1.937.754-3.757 2.123-5.126a7.202 7.202 0 0 1 5.127-2.124c1.936 0 3.757.754 5.126 2.124l.394.393.393-.393a7.2 7.2 0 0 1 5.127-2.124ZM42 50.589l9.07-9.07a4.985 4.985 0 0 0 1.47-3.549c0-1.34-.522-2.601-1.47-3.55a4.986 4.986 0 0 0-3.55-1.47c-1.341 0-2.602.522-3.55 1.47l-1.182 1.183a1.115 1.115 0 0 1-1.577 0L40.03 34.42a4.987 4.987 0 0 0-3.55-1.47c-1.34 0-2.6.522-3.549 1.47a4.987 4.987 0 0 0-1.47 3.549c0 1.34.522 2.601 1.47 3.55L42 50.588Z" fill="#4a4b4d" fill-rule="evenodd" data-name="Icon feather-heart"/></svg>