<svg xmlns="http://www.w3.org/2000/svg" width="17" height="19.429" viewBox="343.5 279.379 17 19.429"><path d="M358.679 287.88h-.911v-2.733A5.775 5.775 0 0 0 352 279.38a5.775 5.775 0 0 0-5.768 5.768v2.732h-.91a1.822 1.822 0 0 0-1.822 1.822v7.285c0 1.006.816 1.822 1.821 1.822h13.358a1.822 1.822 0 0 0 1.821-1.822v-7.285a1.822 1.822 0 0 0-1.821-1.822Zm-3.947 0h-5.464v-2.733a2.735 2.735 0 0 1 2.732-2.732 2.735 2.735 0 0 1 2.732 2.732v2.732Z" fill="#4a4b4d" fill-rule="evenodd" data-name="Icon awesome-lock"/></svg>