<svg xmlns="http://www.w3.org/2000/svg" width="21.204" height="24.233" viewBox="31.398 27.43 21.204 24.233"><path d="M50.33 39.546H38.592v-4.88c0-1.874 1.5-3.43 3.375-3.45a3.413 3.413 0 0 1 3.44 3.408v.757c0 .63.507 1.136 1.137 1.136h1.514c.63 0 1.136-.506 1.136-1.136v-.757c0-3.976-3.242-7.208-7.218-7.194-3.975.014-7.17 3.29-7.17 7.265v4.851H33.67a2.272 2.272 0 0 0-2.272 2.272v7.573a2.272 2.272 0 0 0 2.272 2.272h16.66a2.272 2.272 0 0 0 2.272-2.272v-7.573a2.272 2.272 0 0 0-2.272-2.272Z" fill="#4a4b4d" fill-rule="evenodd" data-name="Icon awesome-unlock"/></svg>