<svg xmlns="http://www.w3.org/2000/svg" width="17" height="19.429" viewBox="343.5 203.571 17 19.429"><path d="M358.679 213.286h-9.411v-3.912c0-1.503 1.203-2.752 2.705-2.767a2.736 2.736 0 0 1 2.76 2.732v.608c0 .504.405.91.91.91h1.214c.505 0 .91-.406.91-.91v-.608c0-3.187-2.598-5.779-5.786-5.767-3.187.01-5.749 2.637-5.749 5.824v3.89h-.91a1.822 1.822 0 0 0-1.822 1.821v6.072c0 1.005.816 1.821 1.821 1.821h13.358a1.822 1.822 0 0 0 1.821-1.821v-6.072a1.822 1.822 0 0 0-1.821-1.821Z" fill="#4a4b4d" fill-rule="evenodd" data-name="Icon awesome-unlock"/></svg>