<svg xmlns="http://www.w3.org/2000/svg" width="30.849" height="30.849" viewBox="199.576 57 30.849 30.849"><path d="m215 59.795 12.927 25.764h-25.854L215 59.795ZM215 57c-.665 0-1.33.448-1.834 1.345l-13.167 26.243c-1.009 1.793-.15 3.26 1.907 3.26h26.188c2.058 0 2.916-1.467 1.907-3.26l-13.167-26.243C216.33 57.448 215.665 57 215 57Zm1.928 25.064a1.928 1.928 0 1 1-3.856 0 1.928 1.928 0 0 1 3.856 0ZM215 78.208a1.928 1.928 0 0 1-1.928-1.928v-5.784a1.928 1.928 0 0 1 3.856 0v5.784A1.928 1.928 0 0 1 215 78.208Z" fill="#e0ad07" fill-rule="evenodd" data-name="Icon metro-warning"/></svg>